<svg width="745" height="202" viewBox="0 0 745 202" fill="none" xmlns="http://www.w3.org/2000/svg">
<path d="M732.27 184.98C728.72 184.98 726.49 181.68 726.49 176.46C726.49 171.24 728.73 168.16 732.27 168.16C735.81 168.16 738.06 171.24 738.06 176.46C738.06 181.68 735.82 184.98 732.27 184.98ZM732.27 190.06C739.29 190.06 744.08 184.96 744.08 176.46C744.08 167.96 739.28 163.09 732.27 163.09C725.26 163.09 720.46 167.97 720.46 176.46C720.46 184.95 725.26 190.06 732.27 190.06ZM705.52 190.06C709.15 190.06 712.31 188.66 714.11 186.91V174.92H704.58V179.72H708.89V184.21C708.26 184.71 707.18 184.98 706.13 184.98C701.24 184.98 698.81 181.87 698.81 176.53C698.81 171.19 701.66 168.17 705.66 168.17C707.89 168.17 709.28 169.06 710.57 170.24L713.67 166.47C711.92 164.71 709.24 163.09 705.46 163.09C698.52 163.09 692.78 168.09 692.78 176.73C692.78 185.37 698.36 190.07 705.52 190.07M671.39 183.38H683.91V178.81H671.39V183.38ZM666 189.58H672.01L675.43 176.41C676.15 173.81 676.85 170.77 677.47 168.02H677.63C678.33 170.73 679.02 173.81 679.74 176.41L683.14 189.58H689.37L681.2 163.57H674.16L665.99 189.58H666ZM646.68 189.58H662.83V184.65H652.56V163.57H646.68V189.58ZM622.59 189.58H639.29V184.65H628.47V178.66H637.34V173.73H628.47V168.51H638.89V163.58H622.59V189.59V189.58ZM602.11 185.04V178.32H605.4C608.63 178.32 610.26 179.25 610.26 181.53C610.26 183.81 608.61 185.04 605.4 185.04H602.11ZM602.11 173.99V168.11H604.9C607.64 168.11 608.97 168.89 608.97 170.89C608.97 172.78 607.71 173.99 604.86 173.99H602.11ZM596.23 189.58H605.88C611.54 189.58 616.01 187.21 616.01 181.92C616.01 178.44 613.96 176.49 611.3 175.79V175.63C613.42 174.83 614.73 172.35 614.73 170.02C614.73 165.05 610.54 163.57 605.14 163.57H596.24V189.58H596.23ZM568.33 189.58H574.21V180.3L582.05 163.57H575.91L573.59 169.54C572.88 171.49 572.14 173.29 571.39 175.31H571.23C570.49 173.3 569.81 171.49 569.11 169.54L566.79 163.57H560.5L568.34 180.3V189.58H568.33ZM544.1 185.04V178.32H547.39C550.63 178.32 552.25 179.25 552.25 181.53C552.25 183.81 550.59 185.04 547.39 185.04H544.1ZM544.1 173.99V168.11H546.89C549.63 168.11 550.96 168.89 550.96 170.89C550.96 172.78 549.7 173.99 546.85 173.99H544.1ZM538.22 189.58H547.87C553.53 189.58 558 187.21 558 181.92C558 178.44 555.95 176.49 553.29 175.79V175.63C555.41 174.83 556.72 172.35 556.72 170.02C556.72 165.05 552.53 163.57 547.13 163.57H538.23V189.58H538.22Z" fill="#5DACEC"/>
<path d="M242.518 83.0563C243.698 83.0563 244.768 83.1763 245.718 83.4263V70.9463C244.768 70.4663 243.578 70.2163 242.158 70.2163C235.998 70.2163 232.078 74.0963 230.418 81.8463L230.178 71.4263H219.268V133.226H231.838V97.5963C231.838 87.9063 235.398 83.0563 242.518 83.0563ZM272.168 94.9363V89.1263C272.168 84.1563 274.178 81.6163 278.338 81.6163C282.498 81.6163 284.508 84.1663 284.508 89.1263V94.9363H272.178H272.168ZM296.838 114.326V113.236H284.738V115.546C284.738 120.516 282.598 123.056 278.458 123.056C274.318 123.056 272.168 120.516 272.168 115.546V105.116H296.838V90.3363C296.838 77.3663 290.198 70.2163 278.218 70.2163C266.238 70.2163 259.598 77.3663 259.598 90.3363V114.326C259.598 127.296 266.238 134.446 278.218 134.446C290.198 134.446 296.838 127.296 296.838 114.326ZM330.758 82.3363H339.888V71.4263H330.758V63.9163C330.758 60.0363 332.178 58.5863 335.618 58.5863C336.918 58.5863 338.348 58.8263 339.888 59.3163V48.4063C337.868 47.5563 335.498 47.1963 333.008 47.1963C323.168 47.1963 318.188 52.1663 318.188 62.2163V71.4263H311.308V82.3363H318.188V133.226H330.758V82.3363ZM376.788 113.106C376.788 120.016 374.648 123.406 370.268 123.406C366.708 123.406 364.928 121.226 364.928 116.746C364.928 112.746 366.828 109.596 370.618 107.176C374.058 104.876 376.198 103.296 376.788 102.576V113.116V113.106ZM379.278 133.226H390.778C389.828 129.226 389.358 123.286 389.358 115.416V90.5763C389.358 76.6463 384.138 70.2163 371.808 70.2163C360.308 70.2163 354.138 77.0063 354.138 89.1263V90.6963H365.998V88.3963C365.998 83.6763 367.888 81.2463 371.688 81.2463C375.128 81.2463 376.788 83.5563 376.788 88.2763V89.4863C376.788 91.1863 376.198 92.5163 375.128 93.6063C374.058 94.5763 371.328 96.1563 366.948 98.3263C356.398 103.656 352.358 109.236 352.358 118.926C352.358 128.616 357.458 134.436 365.528 134.436C371.698 134.436 375.968 131.646 378.338 125.956C378.458 129.716 378.698 132.136 379.288 133.226M426.248 134.436C428.738 134.436 431.108 134.076 433.128 133.226V122.316C431.588 122.796 430.168 123.046 428.858 123.046C425.418 123.046 423.998 121.586 423.998 117.716V82.3363H433.128V71.4363H423.998V54.7163H413.208L412.018 71.4363H404.548V82.3363H411.428V119.416C411.428 129.476 416.408 134.436 426.258 134.436M472.748 115.536C472.748 120.506 470.738 123.046 466.818 123.046C462.898 123.046 460.888 120.506 460.888 115.536V89.1163C460.888 84.1463 462.908 81.6063 466.818 81.6063C470.728 81.6063 472.748 84.1563 472.748 89.1163V115.536ZM485.318 114.326V90.3363C485.318 77.3663 478.678 70.2163 466.818 70.2163C454.958 70.2163 448.318 77.3663 448.318 90.3363V114.326C448.318 127.296 454.958 134.446 466.818 134.446C478.678 134.446 485.318 127.296 485.318 114.326ZM526.598 83.0563C527.778 83.0563 528.848 83.1763 529.798 83.4263V70.9463C528.848 70.4663 527.658 70.2163 526.238 70.2163C520.068 70.2163 516.158 74.0963 514.498 81.8463L514.268 71.4263H503.358V133.226H515.928V97.5963C515.928 87.9063 519.488 83.0563 526.608 83.0563M566.338 113.106C566.338 120.016 564.198 123.406 559.818 123.406C556.258 123.406 554.478 121.226 554.478 116.746C554.478 112.746 556.378 109.596 560.168 107.176C563.608 104.876 565.748 103.296 566.338 102.576V113.116V113.106ZM568.818 133.226H580.328C579.378 129.226 578.908 123.286 578.908 115.416V90.5763C578.908 76.6463 573.688 70.2163 561.358 70.2163C549.848 70.2163 543.688 77.0063 543.688 89.1263V90.6963H555.548V88.3963C555.548 83.6763 557.448 81.2463 561.248 81.2463C564.678 81.2463 566.348 83.5563 566.348 88.2763V89.4863C566.348 91.1863 565.758 92.5163 564.678 93.6063C563.618 94.5763 560.888 96.1563 556.498 98.3263C545.948 103.656 541.908 109.236 541.908 118.926C541.908 128.616 547.008 134.436 555.078 134.436C561.248 134.436 565.518 131.646 567.888 125.956C568.008 129.716 568.248 132.136 568.838 133.226M622.198 133.226H634.768V88.2663C634.768 76.2663 630.258 70.2063 621.238 70.2063C615.428 70.2063 611.398 72.9963 609.148 78.5663L608.918 71.4163H598.008V133.216H610.578V91.5263C610.578 84.8663 612.718 81.5963 616.988 81.5963C620.428 81.5963 622.208 84.2663 622.208 89.7163V133.216L622.198 133.226ZM677.238 113.106C677.238 119.766 675.098 123.046 670.718 123.046C667.158 123.046 665.378 120.496 665.378 115.536V89.1163C665.378 84.1463 667.158 81.6063 670.718 81.6063C675.108 81.6063 677.238 84.8763 677.238 91.5363V113.106ZM679.728 133.226H691.228C690.278 129.226 689.808 123.286 689.808 115.416V48.4063H677.238V75.9063C674.628 72.1463 671.068 70.2163 666.448 70.2163C657.318 70.2163 652.808 76.2763 652.808 88.2763V116.396C652.808 128.396 657.318 134.446 666.448 134.446C672.258 134.446 676.408 131.656 678.658 125.966C678.898 129.846 679.248 132.266 679.728 133.236M732.268 115.536C732.268 120.506 730.258 123.046 726.338 123.046C722.418 123.046 720.408 120.506 720.408 115.536V89.1163C720.408 84.1463 722.428 81.6063 726.338 81.6063C730.248 81.6063 732.268 84.1563 732.268 89.1163V115.536ZM744.848 114.326V90.3363C744.848 77.3663 738.208 70.2163 726.338 70.2163C714.468 70.2163 707.838 77.3663 707.838 90.3363V114.326C707.838 127.296 714.478 134.446 726.338 134.446C738.198 134.446 744.848 127.296 744.848 114.326Z" fill="#5DACEC"/>
<path d="M161.098 133.716C160.878 136.166 161.608 140.956 151.858 146.576L136.808 155.136L136.778 155.086L126.818 160.806L108.788 150.506L135.878 135.016C135.878 135.016 145.018 129.416 143.118 114.576L143.138 82.5563C143.138 82.5563 143.898 71.7263 134.438 65.7663L102.788 47.4363C102.788 47.4363 94.7476 40.9663 84.9276 44.1863L46.4876 66.1663C46.4876 66.1663 39.4976 69.7963 38.8076 78.1063C38.0876 86.8963 38.3676 101.676 38.3676 101.676L38.3176 110.266L20.3576 100.006C20.3576 100.006 20.4176 70.1463 20.6376 67.6963C20.8576 65.2463 20.1276 60.4563 29.8776 54.8363L44.9276 46.2763L44.9576 46.3263L56.1176 39.9163L67.2976 33.5563L67.2676 33.5063L82.2776 24.8863C87.0476 22.1763 90.3876 21.5163 92.8176 21.6763C94.8576 22.0763 97.3676 23.0163 100.468 24.8663L115.308 33.7963L115.278 33.8463L126.328 40.4363L137.348 47.0663L137.378 47.0163L152.248 55.8763C161.888 61.6963 161.058 66.4663 161.228 68.9263C161.398 71.3863 161.008 117.726 161.008 117.726C161.008 117.726 161.318 131.286 161.098 133.736M99.4576 176.536C89.6576 182.086 85.9076 179.036 83.6876 177.976C81.4676 176.916 69.9376 169.776 69.9376 169.776L56.2176 161.856L56.0976 147.626L56.1276 141.286L79.7976 155.046C79.7976 155.046 81.0476 155.846 83.0276 156.656L108.388 171.396L99.4576 176.526V176.536ZM56.2976 106.436L56.6876 80.9063L90.6976 61.4663L125.218 81.1963L124.818 121.106L91.0776 140.396L80.3776 134.286V134.306L56.2276 120.506L56.2976 106.436ZM181.588 117.046C181.588 117.046 181.698 79.9963 181.678 64.6163C181.658 49.2363 167.898 40.7463 167.898 40.7463L137.058 22.4363L106.348 3.8863C106.348 3.8863 93.2276 -3.7337 80.0676 2.3663C78.0076 3.1263 76.7876 3.7963 76.7876 3.7963L68.2476 8.7263C62.4776 11.9263 60.1076 13.3863 60.1076 13.3863L60.1276 13.4063L45.7076 21.7163L14.4976 39.4063C14.4976 39.4063 0.567601 47.6163 0.237601 62.9863C-0.0923992 78.3663 0.0175996 108.646 0.0175996 108.646L38.1976 130.846L38.1376 142.956L37.9176 174.936L58.9076 187.166C58.9076 187.166 63.9576 190.406 77.3776 197.926C90.7976 205.436 104.938 197.596 104.938 197.596L136.018 179.676L167.228 161.986C167.228 161.986 181.158 153.776 181.488 138.406C181.828 123.026 181.588 117.036 181.588 117.036" fill="url(#paint0_linear_175_341)"/>
<defs>
<linearGradient id="paint0_linear_175_341" x1="183.218" y1="14.2163" x2="3.9776" y2="182.096" gradientUnits="userSpaceOnUse">
<stop offset="0.269231" stop-color="#5DACEC"/>
<stop offset="0.879808" stop-color="#0075F5"/>
</linearGradient>
</defs>
</svg>
